Monda-Bold-Italic.ufo
<glyph name="numbersign" format="1">
  <advance width="1430"/>
  <unicode hex="0023"/>
  <outline>
    <contour>
      <point x="106" y="0" type="line"/>
      <point x="312" y="0" type="line"/>
      <point x="471" y="478" type="line"/>
      <point x="728" y="478" type="line"/>
      <point x="566" y="0" type="line"/>
      <point x="772" y="0" type="line"/>
      <point x="930" y="478" type="line"/>
      <point x="1203" y="478" type="line"/>
      <point x="1225" y="618" type="line"/>
      <point x="977" y="618" type="line"/>
      <point x="1069" y="896" type="line"/>
      <point x="1293" y="896" type="line"/>
      <point x="1315" y="1036" type="line"/>
      <point x="1116" y="1036" type="line"/>
      <point x="1262" y="1477" type="line"/>
      <point x="1064" y="1477" type="line"/>
      <point x="915" y="1036" type="line"/>
      <point x="656" y="1036" type="line"/>
      <point x="802" y="1477" type="line"/>
      <point x="604" y="1477" type="line"/>
      <point x="455" y="1036" type="line"/>
      <point x="175" y="1036" type="line"/>
      <point x="153" y="896" type="line"/>
      <point x="409" y="896" type="line"/>
      <point x="315" y="618" type="line"/>
      <point x="85" y="618" type="line"/>
      <point x="63" y="478" type="line"/>
      <point x="268" y="478" type="line"/>
    </contour>
    <contour>
      <point x="517" y="618" type="line"/>
      <point x="609" y="896" type="line"/>
      <point x="868" y="896" type="line"/>
      <point x="774" y="618" type="line"/>
    </contour>
  </outline>
</glyph>
<glyph name="dollar" format="1">
  <advance width="1281"/>
  <unicode hex="0024"/>
  <outline>
    <contour>
      <point x="451" y="-312" type="line"/>
      <point x="561" y="-312" type="line"/>
      <point x="889" y="1758" type="line"/>
      <point x="779" y="1758" type="line"/>
    </contour>
    <component base="S"/>
  </outline>
</glyph>
<glyph name="ampersand" format="1">
  <advance width="1526"/>
  <unicode hex="0026"/>
  <outline>
    <contour>
      <point x="613" y="-27" type="curve" smooth="yes"/>
      <point x="866" y="-27"/>
      <point x="997" y="17"/>
      <point x="1085" y="103" type="curve"/>
      <point x="1193" y="-23" type="line"/>
      <point x="1381" y="150" type="line"/>
      <point x="1237" y="309" type="line"/>
      <point x="1264" y="367"/>
      <point x="1287" y="462"/>
      <point x="1301" y="549" type="curve" smooth="yes"/>
      <point x="1344" y="822" type="line"/>
      <point x="1109" y="822" type="line"/>
      <point x="1063" y="531" type="line" smooth="yes"/>
      <point x="1060" y="515"/>
      <point x="1060" y="514"/>
      <point x="1057" y="500" type="curve"/>
      <point x="671" y="951" type="line" smooth="yes"/>
      <point x="596" y="1046"/>
      <point x="574" y="1071"/>
      <point x="586" y="1149" type="curve" smooth="yes"/>
      <point x="601" y="1244"/>
      <point x="646" y="1305"/>
      <point x="849" y="1305" type="curve" smooth="yes"/>
      <point x="1037" y="1305"/>
      <point x="1087" y="1290"/>
      <point x="1065" y="1152" type="curve" smooth="yes"/>
      <point x="1059" y="1110" type="line"/>
      <point x="1297" y="1110" type="line"/>
      <point x="1310" y="1193" type="line" smooth="yes"/>
      <point x="1347" y="1429"/>
      <point x="1222" y="1506"/>
      <point x="872" y="1506" type="curve" smooth="yes"/>
      <point x="511" y="1506"/>
      <point x="361" y="1395"/>
      <point x="324" y="1165" type="curve" smooth="yes"/>
      <point x="300" y="1011"/>
      <point x="356" y="922"/>
      <point x="446" y="825" type="curve"/>
      <point x="241" y="767"/>
      <point x="136" y="661"/>
      <point x="104" y="460" type="curve" smooth="yes"/>
      <point x="48" y="108"/>
      <point x="170" y="-27"/>
    </contour>
    <contour>
      <point x="648" y="195" type="curve" smooth="yes"/>
      <point x="392" y="195"/>
      <point x="344" y="260"/>
      <point x="377" y="466" type="curve" smooth="yes"/>
      <point x="396" y="588"/>
      <point x="412" y="668"/>
      <point x="553" y="704" type="curve"/>
      <point x="920" y="279" type="line"/>
      <point x="871" y="198"/>
      <point x="757" y="195"/>
    </contour>
  </outline>
</glyph>
<glyph name="parenleft" format="1">
  <advance width="946"/>
  <unicode hex="0028"/>
  <outline>
    <contour>
      <point x="645" y="-159" type="curve"/>
      <point x="679" y="56" type="line"/>
      <point x="471" y="56"/>
      <point x="394" y="121"/>
      <point x="437" y="390" type="curve" smooth="yes"/>
      <point x="536" y="1020" type="line" smooth="yes"/>
      <point x="579" y="1291"/>
      <point x="679" y="1359"/>
      <point x="885" y="1359" type="curve"/>
      <point x="919" y="1575" type="line"/>
      <point x="481" y="1576"/>
      <point x="308" y="1342"/>
      <point x="252" y="986" type="curve" smooth="yes"/>
      <point x="162" y="420" type="line" smooth="yes"/>
      <point x="106" y="67"/>
      <point x="208" y="-160"/>
    </contour>
  </outline>
</glyph>
<glyph name="slash" format="1">
  <advance width="1024"/>
  <unicode hex="002F"/>
  <outline>
    <contour>
      <point x="-14" y="0" type="line"/>
      <point x="229" y="0" type="line"/>
      <point x="1038" y="1516" type="line"/>
      <point x="795" y="1516" type="line"/>
    </contour>
  </outline>
</glyph>
<glyph name="zero" format="1">
  <advance width="1420"/>
  <unicode hex="0030"/>
  <outline>
    <contour>
      <point x="635" y="205" type="curve" smooth="yes"/>
      <point x="424" y="205"/>
      <point x="392" y="371"/>
      <point x="412" y="500" type="curve" smooth="yes"/>
      <point x="487" y="972" type="line" smooth="yes"/>
      <point x="508" y="1102"/>
      <point x="583" y="1270"/>
      <point x="803" y="1270" type="curve" smooth="yes"/>
      <point x="1021" y="1270"/>
      <point x="1040" y="1102"/>
      <point x="1019" y="972" type="curve" smooth="yes"/>
      <point x="944" y="500" type="line" smooth="yes"/>
      <point x="924" y="371"/>
      <point x="847" y="205"/>
    </contour>
    <contour>
      <point x="599" y="-20" type="curve" smooth="yes"/>
      <point x="991" y="-20"/>
      <point x="1192" y="245"/>
      <point x="1234" y="509" type="curve" smooth="yes"/>
      <point x="1305" y="960" type="line" smooth="yes"/>
      <point x="1348" y="1232"/>
      <point x="1239" y="1496"/>
      <point x="839" y="1496" type="curve" smooth="yes"/>
      <point x="432" y="1496"/>
      <point x="229" y="1236"/>
      <point x="186" y="964" type="curve" smooth="yes"/>
      <point x="113" y="505" type="line" smooth="yes"/>
      <point x="71" y="238"/>
      <point x="198" y="-20"/>
    </contour>
  </outline>
</glyph>
<glyph name="two" format="1">
  <advance width="1379"/>
  <unicode hex="0032"/>
  <outline>
    <contour>
      <point x="159" y="0" type="line"/>
      <point x="1047" y="0" type="line"/>
      <point x="1084" y="235" type="line"/>
      <point x="523" y="235" type="line"/>
      <point x="877" y="526" type="line" smooth="yes"/>
      <point x="1088" y="700"/>
      <point x="1194" y="843"/>
      <point x="1228" y="1060" type="curve" smooth="yes"/>
      <point x="1268" y="1313"/>
      <point x="1155" y="1496"/>
      <point x="827" y="1496" type="curve" smooth="yes"/>
      <point x="436" y="1496"/>
      <point x="295" y="1337"/>
      <point x="241" y="992" type="curve"/>
      <point x="541" y="992" type="line"/>
      <point x="574" y="1200"/>
      <point x="641" y="1267"/>
      <point x="799" y="1267" type="curve" smooth="yes"/>
      <point x="906" y="1267"/>
      <point x="963" y="1195"/>
      <point x="941" y="1058" type="curve" smooth="yes"/>
      <point x="924" y="947"/>
      <point x="880" y="864"/>
      <point x="736" y="737" type="curve" smooth="yes"/>
      <point x="158" y="226" type="line"/>
    </contour>
  </outline>
</glyph>
<glyph name="three" format="1">
  <advance width="1379"/>
  <unicode hex="0033"/>
  <outline>
    <contour>
      <point x="585" y="-20" type="curve" smooth="yes"/>
      <point x="913" y="-20"/>
      <point x="1121" y="139"/>
      <point x="1167" y="426" type="curve" smooth="yes"/>
      <point x="1196" y="611"/>
      <point x="1132" y="737"/>
      <point x="988" y="780" type="curve"/>
      <point x="1136" y="811"/>
      <point x="1233" y="926"/>
      <point x="1260" y="1101" type="curve" smooth="yes"/>
      <point x="1301" y="1355"/>
      <point x="1146" y="1496"/>
      <point x="827" y="1496" type="curve" smooth="yes"/>
      <point x="517" y="1496"/>
      <point x="317" y="1331"/>
      <point x="268" y="1033" type="curve"/>
      <point x="547" y="1033" type="line"/>
      <point x="570" y="1187"/>
      <point x="659" y="1272"/>
      <point x="796" y="1272" type="curve" smooth="yes"/>
      <point x="928" y="1272"/>
      <point x="990" y="1206"/>
      <point x="971" y="1087" type="curve" smooth="yes"/>
      <point x="950" y="952"/>
      <point x="878" y="877"/>
      <point x="659" y="877" type="curve"/>
      <point x="627" y="678" type="line"/>
      <point x="851" y="678"/>
      <point x="900" y="593"/>
      <point x="876" y="439" type="curve" smooth="yes"/>
      <point x="850" y="276"/>
      <point x="761" y="201"/>
      <point x="623" y="201" type="curve" smooth="yes"/>
      <point x="477" y="201"/>
      <point x="424" y="285"/>
      <point x="446" y="436" type="curve"/>
      <point x="167" y="436" type="line"/>
      <point x="128" y="143"/>
      <point x="267" y="-20"/>
    </contour>
  </outline>
</glyph>
<glyph name="five" format="1">
  <advance width="1379"/>
  <unicode hex="0035"/>
  <outline>
    <contour>
      <point x="599" y="-20" type="curve" smooth="yes"/>
      <point x="942" y="-20"/>
      <point x="1187" y="179"/>
      <point x="1234" y="474" type="curve" smooth="yes"/>
      <point x="1276" y="743"/>
      <point x="1129" y="957"/>
      <point x="831" y="957" type="curve" smooth="yes"/>
      <point x="732" y="957"/>
      <point x="600" y="935"/>
      <point x="524" y="867" type="curve"/>
      <point x="623" y="1230" type="line"/>
      <point x="1241" y="1230" type="line"/>
      <point x="1279" y="1476" type="line"/>
      <point x="437" y="1476" type="line"/>
      <point x="235" y="711" type="line"/>
      <point x="432" y="604" type="line"/>
      <point x="539" y="692"/>
      <point x="659" y="707"/>
      <point x="739" y="707" type="curve" smooth="yes"/>
      <point x="876" y="707"/>
      <point x="967" y="618"/>
      <point x="944" y="473" type="curve" smooth="yes"/>
      <point x="912" y="274"/>
      <point x="782" y="203"/>
      <point x="618" y="203" type="curve" smooth="yes"/>
      <point x="507" y="203"/>
      <point x="350" y="227"/>
      <point x="201" y="325" type="curve"/>
      <point x="91" y="126" type="line"/>
      <point x="166" y="64"/>
      <point x="372" y="-20"/>
    </contour>
  </outline>
</glyph>
<glyph name="six" format="1">
  <advance width="1379"/>
  <unicode hex="0036"/>
  <outline>
    <contour>
      <point x="592" y="-20" type="curve" smooth="yes"/>
      <point x="924" y="-20"/>
      <point x="1162" y="158"/>
      <point x="1207" y="446" type="curve" smooth="yes"/>
      <point x="1264" y="804"/>
      <point x="1113" y="930"/>
      <point x="799" y="930" type="curve" smooth="yes"/>
      <point x="769" y="930"/>
      <point x="677" y="915"/>
      <point x="639" y="904" type="curve"/>
      <point x="1052" y="1477" type="line"/>
      <point x="732" y="1477" type="line"/>
      <point x="360" y="965" type="line"/>
      <point x="259" y="816"/>
      <point x="176" y="650"/>
      <point x="145" y="459" type="curve" smooth="yes"/>
      <point x="98" y="163"/>
      <point x="271" y="-20"/>
    </contour>
    <contour>
      <point x="641" y="199" type="curve" smooth="yes"/>
      <point x="486" y="199"/>
      <point x="404" y="299"/>
      <point x="429" y="458" type="curve" smooth="yes"/>
      <point x="456" y="629"/>
      <point x="546" y="726"/>
      <point x="721" y="726" type="curve" smooth="yes"/>
      <point x="913" y="726"/>
      <point x="962" y="623"/>
      <point x="936" y="460" type="curve" smooth="yes"/>
      <point x="911" y="300"/>
      <point x="797" y="199"/>
    </contour>
  </outline>
</glyph>
<glyph name="eight" format="1">
  <advance width="1379"/>
  <unicode hex="0038"/>
  <outline>
    <contour>
      <point x="567" y="-20" type="curve" smooth="yes"/>
      <point x="920" y="-20"/>
      <point x="1138" y="119"/>
      <point x="1178" y="374" type="curve" smooth="yes"/>
      <point x="1206" y="551"/>
      <point x="1134" y="697"/>
      <point x="911" y="783" type="curve"/>
      <point x="1127" y="848"/>
      <point x="1238" y="982"/>
      <point x="1261" y="1128" type="curve" smooth="yes"/>
      <point x="1293" y="1333"/>
      <point x="1181" y="1496"/>
      <point x="809" y="1496" type="curve" smooth="yes"/>
      <point x="440" y="1496"/>
      <point x="266" y="1335"/>
      <point x="234" y="1134" type="curve" smooth="yes"/>
      <point x="209" y="975"/>
      <point x="276" y="847"/>
      <point x="464" y="783" type="curve"/>
      <point x="255" y="697"/>
      <point x="118" y="571"/>
      <point x="86" y="372" type="curve" smooth="yes"/>
      <point x="47" y="126"/>
      <point x="225" y="-20"/>
    </contour>
    <contour>
      <point x="603" y="193" type="curve" smooth="yes"/>
      <point x="396" y="193"/>
      <point x="345" y="282"/>
      <point x="362" y="391" type="curve" smooth="yes"/>
      <point x="380" y="502"/>
      <point x="481" y="592"/>
      <point x="678" y="672" type="curve"/>
      <point x="850" y="592"/>
      <point x="922" y="502"/>
      <point x="904" y="391" type="curve" smooth="yes"/>
      <point x="887" y="283"/>
      <point x="809" y="193"/>
    </contour>
    <contour>
      <point x="709" y="869" type="curve"/>
      <point x="553" y="950"/>
      <point x="494" y="1010"/>
      <point x="511" y="1119" type="curve" smooth="yes"/>
      <point x="527" y="1217"/>
      <point x="592" y="1289"/>
      <point x="776" y="1289" type="curve" smooth="yes"/>
      <point x="961" y="1289"/>
      <point x="999" y="1213"/>
      <point x="984" y="1119" type="curve" smooth="yes"/>
      <point x="968" y="1015"/>
      <point x="884" y="950"/>
    </contour>
  </outline>
</glyph>
<glyph name="less" format="1">
  <advance width="1024"/>
  <unicode hex="003C"/>
  <outline>
    <contour>
      <point x="773" y="31" type="line"/>
      <point x="809" y="262" type="line"/>
      <point x="293" y="556" type="line"/>
      <point x="903" y="850" type="line"/>
      <point x="939" y="1081" type="line"/>
      <point x="129" y="664" type="line"/>
      <point x="94" y="445" type="line"/>
    </contour>
  </outline>
</glyph>
<glyph name="equal" format="1">
  <advance width="880"/>
  <unicode hex="003D"/>
  <outline>
    <contour>
      <point x="69" y="371" type="line"/>
      <point x="725" y="371" type="line"/>
      <point x="752" y="544" type="line"/>
      <point x="96" y="544" type="line"/>
    </contour>
    <contour>
      <point x="128" y="740" type="line"/>
      <point x="784" y="740" type="line"/>
      <point x="811" y="913" type="line"/>
      <point x="155" y="913" type="line"/>
    </contour>
  </outline>
</glyph>
<glyph name="greater" format="1">
  <advance width="1024"/>
  <unicode hex="003E"/>
  <outline>
    <contour>
      <point x="69" y="31" type="line"/>
      <point x="879" y="446" type="line"/>
      <point x="913" y="665" type="line"/>
      <point x="235" y="1081" type="line"/>
      <point x="198" y="848" type="line"/>
      <point x="715" y="556" type="line"/>
      <point x="105" y="260" type="line"/>
    </contour>
  </outline>
</glyph>
<glyph name="question" format="1">
  <advance width="1244"/>
  <unicode hex="003F"/>
  <outline>
    <contour>
      <point x="394" y="431" type="line"/>
      <point x="623" y="431" type="line"/>
      <point x="829" y="582" type="line" smooth="yes"/>
      <point x="1035" y="733"/>
      <point x="1136" y="862"/>
      <point x="1168" y="1067" type="curve" smooth="yes"/>
      <point x="1203" y="1289"/>
      <point x="1166" y="1501"/>
      <point x="738" y="1501" type="curve" smooth="yes"/>
      <point x="305" y="1501"/>
      <point x="218" y="1309"/>
      <point x="175" y="1036" type="curve" smooth="yes"/>
      <point x="163" y="962" type="line"/>
      <point x="437" y="962" type="line"/>
      <point x="451" y="1047" type="line" smooth="yes"/>
      <point x="473" y="1188"/>
      <point x="501" y="1279"/>
      <point x="703" y="1279" type="curve" smooth="yes"/>
      <point x="889" y="1279"/>
      <point x="892" y="1166"/>
      <point x="874" y="1056" type="curve" smooth="yes"/>
      <point x="855" y="936"/>
      <point x="806" y="860"/>
      <point x="691" y="740" type="curve" smooth="yes"/>
    </contour>
    <contour>
      <point x="310" y="0" type="line"/>
      <point x="559" y="0" type="line"/>
      <point x="598" y="245" type="line"/>
      <point x="349" y="245" type="line"/>
    </contour>
  </outline>
</glyph>
<glyph name="B" format="1">
  <advance width="1492"/>
  <unicode hex="0042"/>
  <outline>
    <contour>
      <point x="866" y="1476" type="move" name="top"/>
    </contour>
    <contour>
      <point x="95" y="0" type="line"/>
      <point x="735" y="0" type="line" smooth="yes"/>
      <point x="1101" y="0"/>
      <point x="1278" y="139"/>
      <point x="1320" y="448" type="curve"/>
      <point x="1351" y="641"/>
      <point x="1325" y="776"/>
      <point x="1124" y="804" type="curve"/>
      <point x="1285" y="843"/>
      <point x="1334" y="938"/>
      <point x="1358" y="1088" type="curve" smooth="yes"/>
      <point x="1400" y="1353"/>
      <point x="1310" y="1476"/>
      <point x="897" y="1476" type="curve" smooth="yes"/>
      <point x="329" y="1476" type="line"/>
    </contour>
    <contour>
      <point x="425" y="208" type="line"/>
      <point x="503" y="703" type="line"/>
      <point x="821" y="703" type="line" smooth="yes"/>
      <point x="1043" y="703"/>
      <point x="1048" y="602"/>
      <point x="1025" y="455" type="curve" smooth="yes"/>
      <point x="993" y="250"/>
      <point x="944" y="208"/>
      <point x="713" y="208" type="curve" smooth="yes"/>
    </contour>
    <contour>
      <point x="532" y="882" type="line"/>
      <point x="594" y="1273" type="line"/>
      <point x="846" y="1273" type="line" smooth="yes"/>
      <point x="1047" y="1273"/>
      <point x="1080" y="1240"/>
      <point x="1055" y="1085" type="curve" smooth="yes"/>
      <point x="1034" y="952"/>
      <point x="1012" y="882"/>
      <point x="839" y="882" type="curve" smooth="yes"/>
    </contour>
  </outline>
</glyph>
<glyph name="F" format="1">
  <advance width="1195"/>
  <unicode hex="0046"/>
  <outline>
    <contour>
      <point x="815" y="1476" type="move" name="top"/>
    </contour>
    <contour>
      <point x="95" y="0" type="line"/>
      <point x="392" y="0" type="line"/>
      <point x="493" y="634" type="line"/>
      <point x="1048" y="634" type="line"/>
      <point x="1081" y="847" type="line"/>
      <point x="526" y="847" type="line"/>
      <point x="590" y="1249" type="line"/>
      <point x="1186" y="1249" type="line"/>
      <point x="1222" y="1476" type="line"/>
      <point x="329" y="1476" type="line"/>
    </contour>
  </outline>
</glyph>
<glyph name="H" format="1">
  <advance width="1668"/>
  <unicode hex="0048"/>
  <outline>
    <contour>
      <point x="964" y="1476" type="move" name="top"/>
    </contour>
    <contour>
      <point x="95" y="0" type="line"/>
      <point x="393" y="0" type="line"/>
      <point x="491" y="615" type="line"/>
      <point x="1139" y="615" type="line"/>
      <point x="1041" y="0" type="line"/>
      <point x="1339" y="0" type="line"/>
      <point x="1573" y="1476" type="line"/>
      <point x="1275" y="1476" type="line"/>
      <point x="1175" y="848" type="line"/>
      <point x="527" y="848" type="line"/>
      <point x="627" y="1476" type="line"/>
      <point x="329" y="1476" type="line"/>
    </contour>
  </outline>
</glyph>
<glyph name="I" format="1">
  <advance width="1148"/>
  <unicode hex="0049"/>
  <outline>
    <contour>
      <point x="466" y="0" type="move" name="ogonek"/>
    </contour>
    <contour>
      <point x="713" y="1476" type="move" name="top"/>
    </contour>
    <contour>
      <point x="41" y="0" type="line"/>
      <point x="873" y="0" type="line"/>
      <point x="908" y="222" type="line"/>
      <point x="641" y="222" type="line"/>
      <point x="805" y="1255" type="line"/>
      <point x="1072" y="1255" type="line"/>
      <point x="1107" y="1476" type="line"/>
      <point x="275" y="1476" type="line"/>
      <point x="240" y="1255" type="line"/>
      <point x="509" y="1255" type="line"/>
      <point x="345" y="222" type="line"/>
      <point x="76" y="222" type="line"/>
    </contour>
  </outline>
</glyph>
<glyph name="M" format="1">
  <advance width="1918"/>
  <unicode hex="004D"/>
  <outline>
    <contour>
      <point x="1101" y="1476" type="move" name="top"/>
    </contour>
    <contour>
      <point x="95" y="0" type="line"/>
      <point x="373" y="0" type="line"/>
      <point x="545" y="1087" type="line"/>
      <point x="811" y="429" type="line"/>
      <point x="1010" y="429" type="line"/>
      <point x="1484" y="1091" type="line"/>
      <point x="1311" y="0" type="line"/>
      <point x="1589" y="0" type="line"/>
      <point x="1823" y="1476" type="line"/>
      <point x="1490" y="1476" type="line"/>
      <point x="963" y="761" type="line"/>
      <point x="656" y="1476" type="line"/>
      <point x="329" y="1476" type="line"/>
    </contour>
  </outline>
</glyph>
<glyph name="N" format="1">
  <advance width="1678"/>
  <unicode hex="004E"/>
  <outline>
    <contour>
      <point x="981" y="1476" type="move" name="top"/>
    </contour>
    <contour>
      <point x="785" y="0" type="move" name="bot"/>
    </contour>
    <contour>
      <point x="95" y="0" type="line"/>
      <point x="362" y="0" type="line"/>
      <point x="520" y="996" type="line"/>
      <point x="1126" y="0" type="line"/>
      <point x="1349" y="0" type="line"/>
      <point x="1583" y="1476" type="line"/>
      <point x="1319" y="1476" type="line"/>
      <point x="1159" y="464" type="line"/>
      <point x="552" y="1476" type="line"/>
      <point x="329" y="1476" type="line"/>
    </contour>
  </outline>
</glyph>
<glyph name="P" format="1">
  <advance width="1408"/>
  <unicode hex="0050"/>
  <outline>
    <contour>
      <point x="845" y="1476" type="move" name="top"/>
    </contour>
    <contour>
      <point x="95" y="0" type="line"/>
      <point x="392" y="0" type="line"/>
      <point x="473" y="509" type="line"/>
      <point x="726" y="509" type="line" smooth="yes"/>
      <point x="1112" y="509"/>
      <point x="1260" y="663"/>
      <point x="1314" y="1005" type="curve" smooth="yes"/>
      <point x="1367" y="1337"/>
      <point x="1234" y="1476"/>
      <point x="908" y="1476" type="curve" smooth="yes"/>
      <point x="329" y="1476" type="line"/>
    </contour>
    <contour>
      <point x="507" y="726" type="line"/>
      <point x="592" y="1265" type="line"/>
      <point x="902" y="1265" type="line" smooth="yes"/>
      <point x="1042" y="1265"/>
      <point x="1058" y="1145"/>
      <point x="1034" y="990" type="curve" smooth="yes"/>
      <point x="1006" y="813"/>
      <point x="957" y="726"/>
      <point x="807" y="726" type="curve" smooth="yes"/>
    </contour>
  </outline>
</glyph>
<glyph name="Q" format="1">
  <advance width="1622"/>
  <unicode hex="0051"/>
  <outline>
    <contour>
      <point x="857" y="-534" type="line"/>
      <point x="1063" y="-426" type="line"/>
      <point x="882" y="-19" type="line"/>
      <point x="1280" y="25"/>
      <point x="1418" y="256"/>
      <point x="1459" y="517" type="curve" smooth="yes"/>
      <point x="1528" y="948" type="line" smooth="yes"/>
      <point x="1575" y="1247"/>
      <point x="1493" y="1501"/>
      <point x="983" y="1501" type="curve" smooth="yes"/>
      <point x="450" y="1501"/>
      <point x="291" y="1262"/>
      <point x="244" y="963" type="curve" smooth="yes"/>
      <point x="171" y="501" type="line" smooth="yes"/>
      <point x="128" y="234"/>
      <point x="197" y="14"/>
      <point x="616" y="-21" type="curve"/>
    </contour>
    <contour>
      <point x="778" y="207" type="curve" smooth="yes"/>
      <point x="556" y="207"/>
      <point x="431" y="265"/>
      <point x="464" y="468" type="curve" smooth="yes"/>
      <point x="548" y="1003" type="line" smooth="yes"/>
      <point x="580" y="1205"/>
      <point x="726" y="1268"/>
      <point x="946" y="1268" type="curve" smooth="yes"/>
      <point x="1168" y="1268"/>
      <point x="1270" y="1201"/>
      <point x="1238" y="1003" type="curve" smooth="yes"/>
      <point x="1154" y="468" type="line" smooth="yes"/>
      <point x="1122" y="266"/>
      <point x="1002" y="207"/>
    </contour>
  </outline>
</glyph>
<glyph name="S" format="1">
  <advance width="1281"/>
  <unicode hex="0053"/>
  <outline>
    <contour>
      <point x="585" y="0" type="move" name="bot"/>
    </contour>
    <contour>
      <point x="787" y="1476" type="move" name="top"/>
    </contour>
    <contour>
      <point x="567" y="-26" type="curve" smooth="yes"/>
      <point x="904" y="-26"/>
      <point x="1079" y="172"/>
      <point x="1119" y="422" type="curve" smooth="yes"/>
      <point x="1156" y="654"/>
      <point x="1075" y="777"/>
      <point x="886" y="837" type="curve" smooth="yes"/>
      <point x="647" y="912" type="line" smooth="yes"/>
      <point x="497" y="959"/>
      <point x="466" y="1008"/>
      <point x="489" y="1121" type="curve" smooth="yes"/>
      <point x="511" y="1227"/>
      <point x="607" y="1268"/>
      <point x="759" y="1268" type="curve" smooth="yes"/>
      <point x="903" y="1268"/>
      <point x="1027" y="1229"/>
      <point x="1129" y="1177" type="curve"/>
      <point x="1246" y="1386" type="line"/>
      <point x="1122" y="1465"/>
      <point x="965" y="1501"/>
      <point x="770" y="1501" type="curve" smooth="yes"/>
      <point x="479" y="1501"/>
      <point x="236" y="1369"/>
      <point x="192" y="1094" type="curve" smooth="yes"/>
      <point x="163" y="905"/>
      <point x="203" y="752"/>
      <point x="433" y="681" type="curve" smooth="yes"/>
      <point x="673" y="607" type="line" smooth="yes"/>
      <point x="857" y="550"/>
      <point x="861" y="482"/>
      <point x="842" y="390" type="curve" smooth="yes"/>
      <point x="820" y="281"/>
      <point x="767" y="207"/>
      <point x="597" y="207" type="curve" smooth="yes"/>
      <point x="414" y="207"/>
      <point x="260" y="265"/>
      <point x="157" y="325" type="curve"/>
      <point x="20" y="108" type="line"/>
      <point x="155" y="25"/>
      <point x="366" y="-26"/>
    </contour>
  </outline>
</glyph>
<glyph name="U" format="1">
  <advance width="1606"/>
  <unicode hex="0055"/>
  <outline>
    <contour>
      <point x="774" y="0" type="move" name="ogonek"/>
    </contour>
    <contour>
      <point x="944" y="1476" type="move" name="top"/>
    </contour>
    <contour>
      <point x="693" y="-26" type="curve" smooth="yes"/>
      <point x="1191" y="-26"/>
      <point x="1331" y="199"/>
      <point x="1375" y="480" type="curve" smooth="yes"/>
      <point x="1533" y="1477" type="line"/>
      <point x="1236" y="1477" type="line"/>
      <point x="1074" y="455" type="line" smooth="yes"/>
      <point x="1044" y="263"/>
      <point x="938" y="207"/>
      <point x="730" y="207" type="curve" smooth="yes"/>
      <point x="525" y="207"/>
      <point x="415" y="260"/>
      <point x="446" y="455" type="curve" smooth="yes"/>
      <point x="608" y="1477" type="line"/>
      <point x="311" y="1477" type="line"/>
      <point x="151" y="468" type="line" smooth="yes"/>
      <point x="107" y="186"/>
      <point x="188" y="-26"/>
    </contour>
  </outline>
</glyph>
<glyph name="Y" format="1">
  <advance width="1340"/>
  <unicode hex="0059"/>
  <outline>
    <contour>
      <point x="811" y="1476" type="move" name="top"/>
    </contour>
    <contour>
      <point x="410" y="0" type="line"/>
      <point x="706" y="0" type="line"/>
      <point x="796" y="567" type="line"/>
      <point x="1439" y="1476" type="line"/>
      <point x="1139" y="1476" type="line"/>
      <point x="696" y="859" type="line"/>
      <point x="448" y="1476" type="line"/>
      <point x="135" y="1476" type="line"/>
      <point x="500" y="567" type="line"/>
    </contour>
  </outline>
</glyph>
<glyph name="Z" format="1">
  <advance width="1222"/>
  <unicode hex="005A"/>
  <outline>
    <contour>
      <point x="811" y="1476" type="move" name="top"/>
    </contour>
    <contour>
      <point x="5" y="0" type="line"/>
      <point x="1023" y="0" type="line"/>
      <point x="1056" y="210" type="line"/>
      <point x="384" y="210" type="line"/>
      <point x="1217" y="1297" type="line"/>
      <point x="1245" y="1476" type="line"/>
      <point x="264" y="1476" type="line"/>
      <point x="229" y="1258" type="line"/>
      <point x="866" y="1258" type="line"/>
      <point x="33" y="177" type="line"/>
    </contour>
  </outline>
</glyph>
<glyph name="bracketleft" format="1">
  <advance width="842"/>
  <unicode hex="005B"/>
  <outline>
    <contour>
      <point x="79" y="-89" type="line"/>
      <point x="561" y="-89" type="line"/>
      <point x="586" y="72" type="line"/>
      <point x="377" y="72" type="line"/>
      <point x="593" y="1431" type="line"/>
      <point x="802" y="1431" type="line"/>
      <point x="827" y="1592" type="line"/>
      <point x="345" y="1592" type="line"/>
    </contour>
  </outline>
</glyph>
<glyph name="backslash" format="1">
  <advance width="1024"/>
  <unicode hex="005C"/>
  <outline>
    <contour>
      <point x="555" y="0" type="line"/>
      <point x="798" y="0" type="line"/>
      <point x="469" y="1516" type="line"/>
      <point x="226" y="1516" type="line"/>
    </contour>
  </outline>
</glyph>
<glyph name="asciicircum" format="1">
  <advance width="1257"/>
  <unicode hex="005E"/>
  <outline>
    <contour>
      <point x="19" y="511" type="line"/>
      <point x="256" y="511" type="line"/>
      <point x="656" y="1112" type="line"/>
      <point x="865" y="511" type="line"/>
      <point x="1092" y="511" type="line"/>
      <point x="806" y="1283" type="line"/>
      <point x="547" y="1283" type="line"/>
    </contour>
  </outline>
</glyph>
<glyph name="underscore" format="1">
  <advance width="904"/>
  <unicode hex="005F"/>
  <outline>
    <contour>
      <point x="-6" y="-32" type="line"/>
      <point x="877" y="-32" type="line"/>
      <point x="905" y="143" type="line"/>
      <point x="22" y="143" type="line"/>
    </contour>
  </outline>
</glyph>
<glyph name="a" format="1">
  <advance width="1174"/>
  <unicode hex="0061"/>
  <outline>
    <contour>
      <point x="922" y="0" type="move" name="ogonek"/>
    </contour>
    <contour>
      <point x="679" y="1074" type="move" name="top"/>
    </contour>
    <contour>
      <point x="335" y="-23" type="curve" smooth="yes"/>
      <point x="492" y="-23"/>
      <point x="613" y="35"/>
      <point x="693" y="130" type="curve"/>
      <point x="711" y="43"/>
      <point x="768" y="-8"/>
      <point x="927" y="-8" type="curve" smooth="yes"/>
      <point x="1019" y="-8" type="line"/>
      <point x="1061" y="190" type="line"/>
      <point x="963" y="190"/>
      <point x="952" y="210"/>
      <point x="967" y="308" type="curve" smooth="yes"/>
      <point x="1034" y="733" type="line" smooth="yes"/>
      <point x="1070" y="955"/>
      <point x="982" y="1097"/>
      <point x="661" y="1097" type="curve" smooth="yes"/>
      <point x="367" y="1097"/>
      <point x="212" y="963"/>
      <point x="179" y="755" type="curve" smooth="yes"/>
      <point x="174" y="723" type="line"/>
      <point x="429" y="723" type="line"/>
      <point x="435" y="765" type="line" smooth="yes"/>
      <point x="449" y="848"/>
      <point x="489" y="907"/>
      <point x="625" y="907" type="curve" smooth="yes"/>
      <point x="747" y="907"/>
      <point x="789" y="876"/>
      <point x="775" y="790" type="curve" smooth="yes"/>
      <point x="762" y="707"/>
      <point x="730" y="693"/>
      <point x="672" y="673" type="curve" smooth="yes"/>
      <point x="462" y="602" type="line" smooth="yes"/>
      <point x="196" y="512"/>
      <point x="93" y="415"/>
      <point x="71" y="278" type="curve" smooth="yes"/>
      <point x="42" y="94"/>
      <point x="147" y="-23"/>
    </contour>
    <contour>
      <point x="434" y="161" type="curve" smooth="yes"/>
      <point x="370" y="161"/>
      <point x="325" y="190"/>
      <point x="332" y="278" type="curve" smooth="yes"/>
      <point x="338" y="347"/>
      <point x="386" y="405"/>
      <point x="506" y="449" type="curve" smooth="yes"/>
      <point x="734" y="533" type="line"/>
      <point x="696" y="289" type="line"/>
      <point x="630" y="207"/>
      <point x="498" y="161"/>
    </contour>
  </outline>
</glyph>
<glyph name="b" format="1">
  <advance width="1232"/>
  <unicode hex="0062"/>
  <outline>
    <contour>
      <point x="754" y="1074" type="move" name="top"/>
    </contour>
    <contour>
      <point x="543" y="-23" type="curve" smooth="yes"/>
      <point x="804" y="-23"/>
      <point x="993" y="120"/>
      <point x="1026" y="329" type="curve" smooth="yes"/>
      <point x="1093" y="753" type="line" smooth="yes"/>
      <point x="1122" y="934"/>
      <point x="1040" y="1097"/>
      <point x="738" y="1097" type="curve" smooth="yes"/>
      <point x="648" y="1097"/>
      <point x="559" y="1074"/>
      <point x="488" y="1040" type="curve"/>
      <point x="564" y="1516" type="line"/>
      <point x="292" y="1516" type="line"/>
      <point x="52" y="0" type="line"/>
      <point x="239" y="0" type="line"/>
      <point x="276" y="65" type="line"/>
      <point x="338" y="19"/>
      <point x="426" y="-23"/>
    </contour>
    <contour>
      <point x="528" y="168" type="curve" smooth="yes"/>
      <point x="455" y="168"/>
      <point x="394" y="185"/>
      <point x="358" y="216" type="curve"/>
      <point x="460" y="857" type="line"/>
      <point x="482" y="867"/>
      <point x="560" y="907"/>
      <point x="658" y="907" type="curve" smooth="yes"/>
      <point x="779" y="907"/>
      <point x="839" y="865"/>
      <point x="822" y="758" type="curve" smooth="yes"/>
      <point x="753" y="323" type="line" smooth="yes"/>
      <point x="736" y="215"/>
      <point x="645" y="168"/>
    </contour>
  </outline>
</glyph>
<glyph name="c" format="1">
  <advance width="1158"/>
  <unicode hex="0063"/>
  <outline>
    <contour>
      <point x="697" y="1074" type="move" name="top"/>
    </contour>
    <contour>
      <point x="506" y="0" type="move" name="bot"/>
    </contour>
    <contour>
      <point x="500" y="-23" type="curve" smooth="yes"/>
      <point x="845" y="-23"/>
      <point x="948" y="77"/>
      <point x="1002" y="380" type="curve"/>
      <point x="748" y="380" type="line"/>
      <point x="719" y="197"/>
      <point x="682" y="168"/>
      <point x="537" y="168" type="curve" smooth="yes"/>
      <point x="413" y="168"/>
      <point x="360" y="207"/>
      <point x="378" y="322" type="curve" smooth="yes"/>
      <point x="447" y="756" type="line" smooth="yes"/>
      <point x="464" y="867"/>
      <point x="538" y="907"/>
      <point x="654" y="907" type="curve" smooth="yes"/>
      <point x="797" y="907"/>
      <point x="824" y="874"/>
      <point x="794" y="679" type="curve"/>
      <point x="1054" y="699" type="line"/>
      <point x="1102" y="1007"/>
      <point x="966" y="1097"/>
      <point x="674" y="1097" type="curve" smooth="yes"/>
      <point x="393" y="1097"/>
      <point x="209" y="972"/>
      <point x="175" y="757" type="curve" smooth="yes"/>
      <point x="107" y="327" type="line" smooth="yes"/>
      <point x="77" y="140"/>
      <point x="133" y="-23"/>
    </contour>
  </outline>
</glyph>
<glyph name="d" format="1">
  <advance width="1228"/>
  <unicode hex="0064"/>
  <outline>
    <contour>
      <point x="1016" y="1313" type="move" name="mid"/>
    </contour>
    <contour>
      <point x="1011" y="1074" type="move" name="caron.alt"/>
    </contour>
    <contour>
      <point x="600" y="1074" type="move" name="top"/>
    </contour>
    <contour>
      <point x="445" y="-23" type="curve" smooth="yes"/>
      <point x="555" y="-23"/>
      <point x="659" y="14"/>
      <point x="737" y="63" type="curve"/>
      <point x="756" y="0" type="line"/>
      <point x="940" y="0" type="line"/>
      <point x="1180" y="1516" type="line"/>
      <point x="908" y="1516" type="line"/>
      <point x="835" y="1059" type="line"/>
      <point x="776" y="1082"/>
      <point x="703" y="1097"/>
      <point x="642" y="1097" type="curve" smooth="yes"/>
      <point x="329" y="1097"/>
      <point x="172" y="951"/>
      <point x="141" y="753" type="curve" smooth="yes"/>
      <point x="73" y="324" type="line" smooth="yes"/>
      <point x="39" y="108"/>
      <point x="154" y="-23"/>
    </contour>
    <contour>
      <point x="507" y="168" type="curve" smooth="yes"/>
      <point x="387" y="168"/>
      <point x="327" y="211"/>
      <point x="344" y="320" type="curve" smooth="yes"/>
      <point x="414" y="759" type="line" smooth="yes"/>
      <point x="431" y="868"/>
      <point x="510" y="907"/>
      <point x="634" y="907" type="curve" smooth="yes"/>
      <point x="710" y="907"/>
      <point x="772" y="887"/>
      <point x="806" y="870" type="curve"/>
      <point x="701" y="211" type="line"/>
      <point x="655" y="186"/>
      <point x="582" y="168"/>
    </contour>
  </outline>
</glyph>
<glyph name="h" format="1">
  <advance width="1272"/>
  <unicode hex="0068"/>
  <outline>
    <contour>
      <point x="906" y="1305" type="move" name="top"/>
    </contour>
    <contour>
      <point x="50" y="0" type="line"/>
      <point x="322" y="0" type="line"/>
      <point x="439" y="738" type="line" smooth="yes"/>
      <point x="455" y="842"/>
      <point x="579" y="894"/>
      <point x="677" y="894" type="curve" smooth="yes"/>
      <point x="762" y="894"/>
      <point x="856" y="869"/>
      <point x="838" y="756" type="curve" smooth="yes"/>
      <point x="718" y="0" type="line"/>
      <point x="990" y="0" type="line"/>
      <point x="1116" y="795" type="line" smooth="yes"/>
      <point x="1145" y="976"/>
      <point x="1038" y="1097"/>
      <point x="832" y="1097" type="curve" smooth="yes"/>
      <point x="683" y="1097"/>
      <point x="534" y="1045"/>
      <point x="476" y="970" type="curve"/>
      <point x="562" y="1515" type="line"/>
      <point x="290" y="1515" type="line"/>
    </contour>
  </outline>
</glyph>
<glyph name="k" format="1">
  <advance width="1211"/>
  <unicode hex="006B"/>
  <outline>
    <contour>
      <point x="876" y="1305" type="move" name="top"/>
    </contour>
    <contour>
      <point x="544" y="0" type="move" name="bot"/>
    </contour>
    <contour>
      <point x="50" y="0" type="line"/>
      <point x="322" y="0" type="line"/>
      <point x="381" y="374" type="line"/>
      <point x="521" y="497" type="line"/>
      <point x="778" y="0" type="line"/>
      <point x="1075" y="0" type="line"/>
      <point x="750" y="611" type="line"/>
      <point x="1227" y="1074" type="line"/>
      <point x="917" y="1074" type="line"/>
      <point x="417" y="602" type="line"/>
      <point x="562" y="1516" type="line"/>
      <point x="290" y="1516" type="line"/>
    </contour>
  </outline>
</glyph>
<glyph name="p" format="1">
  <advance width="1210"/>
  <unicode hex="0070"/>
  <outline>
    <contour>
      <point x="816" y="1074" type="move" name="top"/>
    </contour>
    <contour>
      <point x="49" y="-410" type="line"/>
      <point x="321" y="-410" type="line"/>
      <point x="388" y="17" type="line"/>
      <point x="437" y="-6"/>
      <point x="502" y="-23"/>
      <point x="587" y="-23" type="curve" smooth="yes"/>
      <point x="890" y="-23"/>
      <point x="1054" y="142"/>
      <point x="1083" y="326" type="curve" smooth="yes"/>
      <point x="1151" y="751" type="line" smooth="yes"/>
      <point x="1183" y="957"/>
      <point x="1056" y="1097"/>
      <point x="796" y="1097" type="curve" smooth="yes"/>
      <point x="679" y="1097"/>
      <point x="569" y="1056"/>
      <point x="490" y="1004" type="curve"/>
      <point x="474" y="1074" type="line"/>
      <point x="284" y="1074" type="line"/>
    </contour>
    <contour>
      <point x="594" y="166" type="curve" smooth="yes"/>
      <point x="489" y="166"/>
      <point x="433" y="205"/>
      <point x="419" y="213" type="curve"/>
      <point x="519" y="841" type="line"/>
      <point x="555" y="872"/>
      <point x="633" y="907"/>
      <point x="720" y="907" type="curve" smooth="yes"/>
      <point x="834" y="907"/>
      <point x="896" y="863"/>
      <point x="879" y="755" type="curve" smooth="yes"/>
      <point x="810" y="320" type="line" smooth="yes"/>
      <point x="793" y="211"/>
      <point x="718" y="166"/>
    </contour>
  </outline>
</glyph>
<glyph name="t" format="1">
  <advance width="860"/>
  <unicode hex="0074"/>
  <outline>
    <contour>
      <point x="365" y="620" type="move" name="mid"/>
    </contour>
    <contour>
      <point x="363" y="24" type="move" name="bot"/>
    </contour>
    <contour>
      <point x="461" y="1074" type="move" name="caron.alt"/>
    </contour>
    <contour>
      <point x="510" y="1408" type="move" name="top"/>
    </contour>
    <contour>
      <point x="534" y="-12" type="curve" smooth="yes"/>
      <point x="631" y="-12" type="line"/>
      <point x="673" y="190" type="line"/>
      <point x="611" y="190" type="line" smooth="yes"/>
      <point x="431" y="190"/>
      <point x="417" y="227"/>
      <point x="438" y="360" type="curve" smooth="yes"/>
      <point x="523" y="901" type="line"/>
      <point x="778" y="901" type="line"/>
      <point x="806" y="1074" type="line"/>
      <point x="551" y="1074" type="line"/>
      <point x="605" y="1419" type="line"/>
      <point x="366" y="1419" type="line"/>
      <point x="287" y="1074" type="line"/>
      <point x="109" y="1074" type="line"/>
      <point x="81" y="901" type="line"/>
      <point x="251" y="901" type="line"/>
      <point x="163" y="341" type="line" smooth="yes"/>
      <point x="119" y="65"/>
      <point x="210" y="-12"/>
    </contour>
  </outline>
</glyph>
<glyph name="u" format="1">
  <advance width="1269"/>
  <unicode hex="0075"/>
  <outline>
    <contour>
      <point x="730" y="1074" type="move" name="top"/>
    </contour>
    <contour>
      <point x="887" y="0" type="move" name="ogonek"/>
    </contour>
    <contour>
      <point x="408" y="-23" type="curve" smooth="yes"/>
      <point x="556" y="-30"/>
      <point x="715" y="29"/>
      <point x="773" y="118" type="curve"/>
      <point x="762" y="0" type="line"/>
      <point x="1018" y="0" type="line"/>
      <point x="1188" y="1074" type="line"/>
      <point x="916" y="1074" type="line"/>
      <point x="801" y="350" type="line" smooth="yes"/>
      <point x="782" y="230"/>
      <point x="661" y="182"/>
      <point x="562" y="182" type="curve" smooth="yes"/>
      <point x="478" y="182"/>
      <point x="386" y="223"/>
      <point x="404" y="335" type="curve" smooth="yes"/>
      <point x="521" y="1074" type="line"/>
      <point x="249" y="1074" type="line"/>
      <point x="125" y="291" type="line" smooth="yes"/>
      <point x="96" y="110"/>
      <point x="204" y="-13"/>
    </contour>
  </outline>
</glyph>
<glyph name="v" format="1">
  <advance width="1171"/>
  <unicode hex="0076"/>
  <outline>
    <contour>
      <point x="365" y="0" type="line"/>
      <point x="654" y="0" type="line"/>
      <point x="1188" y="1074" type="line"/>
      <point x="931" y="1074" type="line"/>
      <point x="552" y="266" type="line"/>
      <point x="424" y="1074" type="line"/>
      <point x="153" y="1074" type="line"/>
    </contour>
  </outline>
</glyph>
<glyph name="y" format="1">
  <advance width="1120"/>
  <unicode hex="0079"/>
  <outline>
    <contour>
      <point x="701" y="1074" type="move" name="top"/>
    </contour>
    <contour>
      <point x="47" y="-465" type="line"/>
      <point x="392" y="-435"/>
      <point x="481" y="-355"/>
      <point x="732" y="140" type="curve" smooth="yes"/>
      <point x="1206" y="1074" type="line"/>
      <point x="936" y="1074" type="line"/>
      <point x="599" y="353" type="line"/>
      <point x="434" y="1074" type="line"/>
      <point x="172" y="1074" type="line"/>
      <point x="411" y="36" type="line"/>
      <point x="312" y="-198"/>
      <point x="259" y="-239"/>
      <point x="60" y="-260" type="curve"/>
    </contour>
  </outline>
</glyph>
<glyph name="z" format="1">
  <advance width="995"/>
  <unicode hex="007A"/>
  <outline>
    <contour>
      <point x="614" y="1074" type="move" name="top"/>
    </contour>
    <contour>
      <point x="408" y="0" type="move" name="bot"/>
    </contour>
    <contour>
      <point x="36" y="0" type="line"/>
      <point x="795" y="0" type="line"/>
      <point x="825" y="190" type="line"/>
      <point x="361" y="190" type="line"/>
      <point x="929" y="910" type="line"/>
      <point x="955" y="1074" type="line"/>
      <point x="209" y="1074" type="line"/>
      <point x="180" y="888" type="line"/>
      <point x="627" y="888" type="line"/>
      <point x="62" y="167" type="line"/>
    </contour>
  </outline>
</glyph>
<glyph name="bar" format="1">
  <advance width="768"/>
  <unicode hex="007C"/>
  <outline>
    <contour>
      <point x="125" y="-126" type="line"/>
      <point x="369" y="-126" type="line"/>
      <point x="643" y="1608" type="line"/>
      <point x="399" y="1608" type="line"/>
    </contour>
  </outline>
</glyph>
<glyph name="braceright" format="1">
  <advance width="991"/>
  <unicode hex="007D"/>
  <outline>
    <contour>
      <point x="44" y="-128" type="curve"/>
      <point x="419" y="-128"/>
      <point x="529" y="-11"/>
      <point x="582" y="322" type="curve" smooth="yes"/>
      <point x="596" y="409" type="line" smooth="yes"/>
      <point x="622" y="572"/>
      <point x="670" y="595"/>
      <point x="816" y="595" type="curve"/>
      <point x="854" y="833" type="line"/>
      <point x="707" y="833"/>
      <point x="669" y="873"/>
      <point x="695" y="1036" type="curve" smooth="yes"/>
      <point x="711" y="1139" type="line" smooth="yes"/>
      <point x="771" y="1515"/>
      <point x="667" y="1556"/>
      <point x="310" y="1556" type="curve"/>
      <point x="310" y="1556"/>
      <point x="282" y="1382"/>
      <point x="283" y="1382" type="curve" smooth="yes"/>
      <point x="458" y="1382"/>
      <point x="466" y="1349"/>
      <point x="444" y="1210" type="curve" smooth="yes"/>
      <point x="423" y="1080" type="line" smooth="yes"/>
      <point x="394" y="896"/>
      <point x="419" y="758"/>
      <point x="526" y="722" type="curve"/>
      <point x="402" y="680"/>
      <point x="341" y="569"/>
      <point x="309" y="369" type="curve" smooth="yes"/>
      <point x="291" y="252" type="line" smooth="yes"/>
      <point x="267" y="101"/>
      <point x="244" y="46"/>
      <point x="71" y="46" type="curve" smooth="yes"/>
      <point x="70" y="46"/>
      <point x="44" y="-128"/>
    </contour>
  </outline>
</glyph>
<glyph name="asciitilde" format="1">
  <advance width="1024"/>
  <unicode hex="007E"/>
  <outline>
    <contour>
      <point x="664" y="1131" type="curve" smooth="yes"/>
      <point x="799" y="1131"/>
      <point x="928" y="1262"/>
      <point x="958" y="1450" type="curve"/>
      <point x="849" y="1450" type="line"/>
      <point x="838" y="1379"/>
      <point x="792" y="1298"/>
      <point x="702" y="1298" type="curve" smooth="yes"/>
      <point x="622" y="1298"/>
      <point x="512" y="1466"/>
      <point x="359" y="1466" type="curve" smooth="yes"/>
      <point x="224" y="1466"/>
      <point x="96" y="1336"/>
      <point x="66" y="1147" type="curve"/>
      <point x="174" y="1147" type="line"/>
      <point x="185" y="1218"/>
      <point x="231" y="1300"/>
      <point x="322" y="1300" type="curve" smooth="yes"/>
      <point x="401" y="1300"/>
      <point x="510" y="1131"/>
    </contour>
  </outline>
</glyph>
<glyph name="cent" format="1">
  <advance width="1107"/>
  <unicode hex="00A2"/>
  <outline>
    <component base="c"/>
    <contour>
      <point x="612" y="1006" type="line"/>
      <point x="705" y="1006" type="line"/>
      <point x="750" y="1291" type="line"/>
      <point x="657" y="1291" type="line"/>
    </contour>
    <contour>
      <point x="419" y="-214" type="line"/>
      <point x="512" y="-214" type="line"/>
      <point x="557" y="71" type="line"/>
      <point x="464" y="71" type="line"/>
    </contour>
  </outline>
</glyph>
<glyph name="currency" format="1">
  <advance width="1126"/>
  <unicode hex="00A4"/>
  <outline>
    <contour>
      <point x="506" y="381" type="curve" smooth="yes"/>
      <point x="615" y="381"/>
      <point x="706" y="423"/>
      <point x="773" y="485" type="curve"/>
      <point x="896" y="384" type="line"/>
      <point x="961" y="465" type="line"/>
      <point x="839" y="563" type="line"/>
      <point x="870" y="611"/>
      <point x="890" y="667"/>
      <point x="899" y="723" type="curve" smooth="yes"/>
      <point x="908" y="779"/>
      <point x="905" y="836"/>
      <point x="888" y="886" type="curve"/>
      <point x="1040" y="986" type="line"/>
      <point x="1006" y="1067" type="line"/>
      <point x="847" y="964" type="line"/>
      <point x="800" y="1025"/>
      <point x="723" y="1064"/>
      <point x="614" y="1064" type="curve" smooth="yes"/>
      <point x="506" y="1064"/>
      <point x="416" y="1026"/>
      <point x="350" y="968" type="curve"/>
      <point x="231" y="1067" type="line"/>
      <point x="166" y="987" type="line"/>
      <point x="283" y="892" type="line"/>
      <point x="248" y="840"/>
      <point x="225" y="782"/>
      <point x="216" y="723" type="curve" smooth="yes"/>
      <point x="207" y="665"/>
      <point x="211" y="608"/>
      <point x="228" y="559" type="curve"/>
      <point x="85" y="467" type="line"/>
      <point x="120" y="383" type="line"/>
      <point x="270" y="480" type="line"/>
      <point x="318" y="420"/>
      <point x="397" y="381"/>
    </contour>
    <contour>
      <point x="529" y="528" type="curve" smooth="yes"/>
      <point x="398" y="528"/>
      <point x="352" y="622"/>
      <point x="368" y="723" type="curve" smooth="yes"/>
      <point x="384" y="824"/>
      <point x="460" y="918"/>
      <point x="591" y="918" type="curve" smooth="yes"/>
      <point x="720" y="918"/>
      <point x="764" y="824"/>
      <point x="748" y="723" type="curve" smooth="yes"/>
      <point x="732" y="622"/>
      <point x="658" y="528"/>
    </contour>
  </outline>
</glyph>
<glyph name="yen" format="1">
  <advance width="1304"/>
  <unicode hex="00A5"/>
  <outline>
    <component base="Y"/>
    <contour>
      <point x="988" y="533" type="line"/>
      <point x="1009" y="667" type="line"/>
      <point x="267" y="667" type="line"/>
      <point x="246" y="533" type="line"/>
    </contour>
    <contour>
      <point x="940" y="231" type="line"/>
      <point x="961" y="365" type="line"/>
      <point x="219" y="365" type="line"/>
      <point x="198" y="231" type="line"/>
    </contour>
  </outline>
</glyph>
<glyph name="brokenbar" format="1">
  <advance width="769"/>
  <unicode hex="00A6"/>
  <outline>
    <contour>
      <point x="154" y="-120" type="line"/>
      <point x="363" y="-120" type="line"/>
      <point x="475" y="590" type="line"/>
      <point x="266" y="590" type="line"/>
    </contour>
    <contour>
      <point x="299" y="800" type="line"/>
      <point x="508" y="800" type="line"/>
      <point x="615" y="1476" type="line"/>
      <point x="406" y="1476" type="line"/>
    </contour>
  </outline>
</glyph>
<glyph name="section" format="1">
  <advance width="1085"/>
  <unicode hex="00A7"/>
  <outline>
    <contour>
      <point x="25" y="112" type="line"/>
      <point x="110" y="32"/>
      <point x="254" y="-22"/>
      <point x="436" y="-22" type="curve" smooth="yes"/>
      <point x="693" y="-22"/>
      <point x="844" y="123"/>
      <point x="872" y="304" type="curve" smooth="yes"/>
      <point x="888" y="403"/>
      <point x="868" y="457"/>
      <point x="820" y="505" type="curve"/>
      <point x="898" y="568"/>
      <point x="948" y="642"/>
      <point x="960" y="716" type="curve" smooth="yes"/>
      <point x="975" y="814"/>
      <point x="923" y="911"/>
      <point x="787" y="981" type="curve" smooth="yes"/>
      <point x="545" y="1104" type="line" smooth="yes"/>
      <point x="497" y="1129"/>
      <point x="469" y="1151"/>
      <point x="478" y="1206" type="curve" smooth="yes"/>
      <point x="489" y="1273"/>
      <point x="554" y="1308"/>
      <point x="641" y="1308" type="curve" smooth="yes"/>
      <point x="722" y="1308"/>
      <point x="822" y="1279"/>
      <point x="916" y="1218" type="curve"/>
      <point x="1025" y="1377" type="line"/>
      <point x="964" y="1431"/>
      <point x="833" y="1497"/>
      <point x="649" y="1497" type="curve" smooth="yes"/>
      <point x="420" y="1497"/>
      <point x="255" y="1403"/>
      <point x="222" y="1192" type="curve" smooth="yes"/>
      <point x="208" y="1104"/>
      <point x="230" y="1048"/>
      <point x="283" y="999" type="curve"/>
      <point x="208" y="949"/>
      <point x="154" y="872"/>
      <point x="142" y="792" type="curve" smooth="yes"/>
      <point x="127" y="700"/>
      <point x="167" y="604"/>
      <point x="294" y="537" type="curve" smooth="yes"/>
      <point x="535" y="411" type="line" smooth="yes"/>
      <point x="607" y="373"/>
      <point x="626" y="339"/>
      <point x="617" y="286" type="curve" smooth="yes"/>
      <point x="607" y="220"/>
      <point x="535" y="176"/>
      <point x="435" y="176" type="curve" smooth="yes"/>
      <point x="351" y="176"/>
      <point x="248" y="207"/>
      <point x="146" y="281" type="curve"/>
    </contour>
    <contour>
      <point x="713" y="579" type="curve"/>
      <point x="402" y="733" type="line" smooth="yes"/>
      <point x="342" y="762"/>
      <point x="326" y="797"/>
      <point x="336" y="852" type="curve" smooth="yes"/>
      <point x="342" y="886"/>
      <point x="374" y="930"/>
      <point x="392" y="941" type="curve"/>
      <point x="670" y="797" type="line"/>
      <point x="754" y="758"/>
      <point x="755" y="705"/>
      <point x="746" y="652" type="curve" smooth="yes"/>
      <point x="743" y="628"/>
      <point x="731" y="601"/>
    </contour>
  </outline>
</glyph>
<glyph name="guillemotleft" format="1">
  <advance width="1024"/>
  <unicode hex="00AB"/>
  <outline>
    <contour>
      <point x="276" y="80" type="line"/>
      <point x="427" y="150" type="line"/>
      <point x="280" y="530" type="line"/>
      <point x="547" y="910" type="line"/>
      <point x="411" y="980" type="line"/>
      <point x="67" y="530" type="line"/>
    </contour>
    <contour>
      <point x="690" y="80" type="line"/>
      <point x="839" y="150" type="line"/>
      <point x="694" y="530" type="line"/>
      <point x="959" y="910" type="line"/>
      <point x="825" y="980" type="line"/>
      <point x="481" y="530" type="line"/>
    </contour>
  </outline>
</glyph>
<glyph name="logicalnot" format="1">
  <advance width="1024"/>
  <unicode hex="00AC"/>
  <outline>
    <contour>
      <point x="663" y="226" type="line"/>
      <point x="811" y="226" type="line"/>
      <point x="895" y="757" type="line"/>
      <point x="171" y="757" type="line"/>
      <point x="144" y="587" type="line"/>
      <point x="720" y="587" type="line"/>
    </contour>
  </outline>
</glyph>
<glyph name="uni00AD" format="1">
  <advance width="968"/>
  <unicode hex="00AD"/>
  <outline>
    <contour>
      <point x="476" y="569" type="move" name="_mid"/>
    </contour>
    <contour>
      <point x="120" y="494" type="line"/>
      <point x="824" y="494" type="line"/>
      <point x="848" y="642" type="line"/>
      <point x="144" y="642" type="line"/>
    </contour>
  </outline>
</glyph>
<glyph name="registered" format="1">
  <advance width="1776"/>
  <unicode hex="00AE"/>
  <outline>
    <contour>
      <point x="528" y="319" type="line"/>
      <point x="659" y="319" type="line"/>
      <point x="712" y="652" type="line"/>
      <point x="971" y="652" type="line"/>
      <point x="1098" y="319" type="line"/>
      <point x="1226" y="319" type="line"/>
      <point x="1097" y="666" type="line"/>
      <point x="1193" y="691"/>
      <point x="1264" y="760"/>
      <point x="1285" y="894" type="curve"/>
      <point x="1288" y="908" type="line"/>
      <point x="1311" y="1082"/>
      <point x="1220" y="1153"/>
      <point x="1063" y="1153" type="curve" smooth="yes"/>
      <point x="660" y="1153" type="line"/>
    </contour>
    <contour>
      <point x="726" y="742" type="line"/>
      <point x="777" y="1062" type="line"/>
      <point x="1053" y="1062" type="line" smooth="yes"/>
      <point x="1171" y="1062"/>
      <point x="1164" y="960"/>
      <point x="1155" y="901" type="curve" smooth="yes"/>
      <point x="1151" y="877" type="line" smooth="yes"/>
      <point x="1140" y="814"/>
      <point x="1107" y="742"/>
      <point x="993" y="742" type="curve" smooth="yes"/>
    </contour>
    <contour>
      <point x="789" y="82" type="curve" smooth="yes"/>
      <point x="425" y="82"/>
      <point x="203" y="357"/>
      <point x="261" y="722" type="curve" smooth="yes"/>
      <point x="319" y="1086"/>
      <point x="627" y="1361"/>
      <point x="991" y="1361" type="curve" smooth="yes"/>
      <point x="1357" y="1361"/>
      <point x="1576" y="1086"/>
      <point x="1518" y="722" type="curve" smooth="yes"/>
      <point x="1460" y="357"/>
      <point x="1155" y="82"/>
    </contour>
    <contour>
      <point x="772" y="-14" type="curve" smooth="yes"/>
      <point x="1188" y="-14"/>
      <point x="1558" y="303"/>
      <point x="1624" y="722" type="curve" smooth="yes"/>
      <point x="1690" y="1139"/>
      <point x="1420" y="1456"/>
      <point x="1004" y="1456" type="curve" smooth="yes"/>
      <point x="591" y="1456"/>
      <point x="218" y="1139"/>
      <point x="152" y="722" type="curve" smooth="yes"/>
      <point x="86" y="303"/>
      <point x="359" y="-14"/>
    </contour>
  </outline>
</glyph>
<glyph name="plusminus" format="1">
  <advance width="1024"/>
  <unicode hex="00B1"/>
  <outline>
    <contour>
      <point x="400" y="326" type="line"/>
      <point x="566" y="326" type="line"/>
      <point x="608" y="591" type="line"/>
      <point x="866" y="591" type="line"/>
      <point x="892" y="755" type="line"/>
      <point x="634" y="755" type="line"/>
      <point x="676" y="1018" type="line"/>
      <point x="510" y="1018" type="line"/>
      <point x="468" y="755" type="line"/>
      <point x="210" y="755" type="line"/>
      <point x="184" y="591" type="line"/>
      <point x="442" y="591" type="line"/>
    </contour>
    <contour>
      <point x="90" y="0" type="line"/>
      <point x="772" y="0" type="line"/>
      <point x="799" y="165" type="line"/>
      <point x="117" y="165" type="line"/>
    </contour>
  </outline>
</glyph>
<glyph name="paragraph" format="1">
  <advance width="1222"/>
  <unicode hex="00B6"/>
  <outline>
    <contour>
      <point x="330" y="0" type="line"/>
      <point x="502" y="0" type="line"/>
      <point x="713" y="1334" type="line"/>
      <point x="944" y="1334" type="line"/>
      <point x="733" y="0" type="line"/>
      <point x="905" y="0" type="line"/>
      <point x="1139" y="1476" type="line"/>
      <point x="579" y="1476" type="line" smooth="yes"/>
      <point x="385" y="1476"/>
      <point x="198" y="1389"/>
      <point x="164" y="1173" type="curve" smooth="yes"/>
      <point x="131" y="963"/>
      <point x="272" y="859"/>
      <point x="466" y="858" type="curve"/>
    </contour>
  </outline>
</glyph>
<glyph name="periodcentered" format="1">
  <advance width="512"/>
  <unicode hex="00B7"/>
  <outline>
    <contour>
      <point x="1" y="902" type="move" name="_mid"/>
    </contour>
    <contour>
      <point x="245" y="780" type="line"/>
      <point x="493" y="780" type="line"/>
      <point x="531" y="1025" type="line"/>
      <point x="283" y="1025" type="line"/>
    </contour>
  </outline>
</glyph>
<glyph name="ordmasculine" format="1">
  <advance width="1024"/>
  <unicode hex="00BA"/>
  <outline>
    <contour>
      <point x="459" y="675" type="line"/>
      <point x="358" y="675"/>
      <point x="307" y="708"/>
      <point x="322" y="802" type="curve" smooth="yes"/>
      <point x="383" y="1187" type="line" smooth="yes"/>
      <point x="398" y="1281"/>
      <point x="465" y="1314"/>
      <point x="561" y="1314" type="curve" smooth="yes"/>
      <point x="661" y="1314"/>
      <point x="713" y="1281"/>
      <point x="698" y="1187" type="curve" smooth="yes"/>
      <point x="637" y="802" type="line" smooth="yes"/>
      <point x="622" y="708"/>
      <point x="555" y="675"/>
      <point x="461" y="675" type="curve" smooth="yes"/>
    </contour>
    <contour>
      <point x="437" y="512" type="curve" smooth="yes"/>
      <point x="718" y="513"/>
      <point x="830" y="628"/>
      <point x="859" y="811" type="curve" smooth="yes"/>
      <point x="917" y="1175" type="line" smooth="yes"/>
      <point x="947" y="1363"/>
      <point x="825" y="1475"/>
      <point x="588" y="1475" type="curve" smooth="yes"/>
      <point x="349" y="1475"/>
      <point x="195" y="1363"/>
      <point x="165" y="1175" type="curve" smooth="yes"/>
      <point x="107" y="811" type="line" smooth="yes"/>
      <point x="78" y="627"/>
      <point x="162" y="512"/>
    </contour>
  </outline>
</glyph>
<glyph name="onehalf" format="1">
  <advance width="2579"/>
  <unicode hex="00BD"/>
  <outline>
    <contour>
      <point x="1604" y="-2" type="line"/>
      <point x="2251" y="-2" type="line"/>
      <point x="2276" y="160" type="line"/>
      <point x="1839" y="160" type="line"/>
      <point x="2108" y="386" type="line" smooth="yes"/>
      <point x="2244" y="501"/>
      <point x="2359" y="612"/>
      <point x="2383" y="767" type="curve" smooth="yes"/>
      <point x="2411" y="940"/>
      <point x="2346" y="1071"/>
      <point x="2076" y="1071" type="curve" smooth="yes"/>
      <point x="1791" y="1071"/>
      <point x="1685" y="958"/>
      <point x="1645" y="706" type="curve"/>
      <point x="1863" y="706" type="line"/>
      <point x="1887" y="860"/>
      <point x="1917" y="911"/>
      <point x="2052" y="911" type="curve" smooth="yes"/>
      <point x="2156" y="911"/>
      <point x="2186" y="863"/>
      <point x="2169" y="765" type="curve"/>
      <point x="2155" y="675"/>
      <point x="2097" y="606"/>
      <point x="1996" y="518" type="curve" smooth="yes"/>
      <point x="1584" y="159" type="line"/>
    </contour>
    <contour>
      <point x="79" y="422" type="line"/>
      <point x="804" y="422" type="line"/>
      <point x="827" y="569" type="line"/>
      <point x="581" y="569" type="line"/>
      <point x="725" y="1477" type="line"/>
      <point x="579" y="1477" type="line"/>
      <point x="235" y="1424" type="line"/>
      <point x="230" y="1279" type="line"/>
      <point x="488" y="1318" type="line"/>
      <point x="369" y="569" type="line"/>
      <point x="101" y="569" type="line"/>
    </contour>
    <contour>
      <point x="760" y="0" type="line"/>
      <point x="934" y="0" type="line"/>
      <point x="1813" y="1505" type="line"/>
      <point x="1639" y="1505" type="line"/>
    </contour>
  </outline>
</glyph>
<glyph name="multiply" format="1">
  <advance width="1025"/>
  <unicode hex="00D7"/>
  <outline>
    <contour>
      <point x="208" y="216" type="line"/>
      <point x="494" y="458" type="line"/>
      <point x="704" y="216" type="line"/>
      <point x="834" y="344" type="line"/>
      <point x="634" y="576" type="line"/>
      <point x="907" y="806" type="line"/>
      <point x="818" y="937" type="line"/>
      <point x="532" y="694" type="line"/>
      <point x="322" y="937" type="line"/>
      <point x="190" y="806" type="line"/>
      <point x="392" y="576" type="line"/>
      <point x="117" y="344" type="line"/>
    </contour>
  </outline>
</glyph>
<glyph name="eth" format="1">
  <advance width="1312"/>
  <unicode hex="00F0"/>
  <outline>
    <contour>
      <point x="544" y="-23" type="curve" smooth="yes"/>
      <point x="927" y="-23"/>
      <point x="1082" y="195"/>
      <point x="1124" y="460" type="curve" smooth="yes"/>
      <point x="1136" y="536" type="line" smooth="yes"/>
      <point x="1231" y="1137"/>
      <point x="1022" y="1376"/>
      <point x="784" y="1448" type="curve"/>
      <point x="882" y="1598" type="line"/>
      <point x="771" y="1655" type="line"/>
      <point x="659" y="1485" type="line"/>
      <point x="548" y="1509"/>
      <point x="440" y="1507"/>
      <point x="366" y="1502" type="curve"/>
      <point x="315" y="1335" type="line"/>
      <point x="384" y="1334"/>
      <point x="468" y="1333"/>
      <point x="551" y="1318" type="curve"/>
      <point x="450" y="1167" type="line"/>
      <point x="560" y="1110" type="line"/>
      <point x="676" y="1284" type="line"/>
      <point x="789" y="1250"/>
      <point x="892" y="1138"/>
      <point x="881" y="921" type="curve"/>
      <point x="857" y="944"/>
      <point x="712" y="975"/>
      <point x="646" y="975" type="curve" smooth="yes"/>
      <point x="383" y="975"/>
      <point x="171" y="846"/>
      <point x="135" y="618" type="curve" smooth="yes"/>
      <point x="91" y="342" type="line" smooth="yes"/>
      <point x="55" y="118"/>
      <point x="193" y="-23"/>
    </contour>
    <contour>
      <point x="576" y="178" type="curve" smooth="yes"/>
      <point x="409" y="178"/>
      <point x="350" y="221"/>
      <point x="368" y="333" type="curve" smooth="yes"/>
      <point x="412" y="612" type="line" smooth="yes"/>
      <point x="432" y="743"/>
      <point x="527" y="793"/>
      <point x="673" y="793" type="curve" smooth="yes"/>
      <point x="733" y="793"/>
      <point x="836" y="766"/>
      <point x="874" y="736" type="curve"/>
      <point x="876" y="654"/>
      <point x="859" y="497"/>
      <point x="849" y="428" type="curve" smooth="yes"/>
      <point x="822" y="258"/>
      <point x="789" y="178"/>
    </contour>
  </outline>
</glyph>
<glyph name="divide" format="1">
  <advance width="1004"/>
  <unicode hex="00F7"/>
  <outline>
    <contour>
      <point x="316" y="94" type="line"/>
      <point x="544" y="94" type="line"/>
      <point x="580" y="323" type="line"/>
      <point x="352" y="323" type="line"/>
    </contour>
    <contour>
      <point x="100" y="479" type="line"/>
      <point x="880" y="479" type="line"/>
      <point x="905" y="642" type="line"/>
      <point x="125" y="642" type="line"/>
    </contour>
    <contour>
      <point x="426" y="792" type="line"/>
      <point x="654" y="792" type="line"/>
      <point x="690" y="1021" type="line"/>
      <point x="462" y="1021" type="line"/>
    </contour>
  </outline>
</glyph>
<glyph name="oslash" format="1">
  <advance width="1180"/>
  <unicode hex="00F8"/>
  <outline>
    <component base="o"/>
    <contour>
      <point x="686" y="1074" type="move" name="top"/>
    </contour>
    <contour>
      <point x="249" y="-214" type="line"/>
      <point x="1011" y="1260" type="line"/>
      <point x="942" y="1281" type="line"/>
      <point x="180" y="-194" type="line"/>
    </contour>
  </outline>
</glyph>
<glyph name="thorn" format="1">
  <advance width="1212"/>
  <unicode hex="00FE"/>
  <outline>
    <contour>
      <point x="5" y="-410" type="line"/>
      <point x="278" y="-410" type="line"/>
      <point x="346" y="17" type="line"/>
      <point x="395" y="-6"/>
      <point x="460" y="-24"/>
      <point x="545" y="-24" type="curve" smooth="yes"/>
      <point x="848" y="-24"/>
      <point x="1015" y="142"/>
      <point x="1044" y="326" type="curve" smooth="yes"/>
      <point x="1111" y="751" type="line" smooth="yes"/>
      <point x="1144" y="957"/>
      <point x="1014" y="1095"/>
      <point x="754" y="1095" type="curve" smooth="yes"/>
      <point x="663" y="1095"/>
      <point x="576" y="1071"/>
      <point x="507" y="1036" type="curve"/>
      <point x="584" y="1516" type="line"/>
      <point x="311" y="1516" type="line"/>
    </contour>
    <contour>
      <point x="553" y="165" type="curve" smooth="yes"/>
      <point x="448" y="165"/>
      <point x="391" y="205"/>
      <point x="377" y="213" type="curve"/>
      <point x="477" y="841" type="line"/>
      <point x="514" y="872"/>
      <point x="591" y="906"/>
      <point x="679" y="906" type="curve" smooth="yes"/>
      <point x="792" y="906"/>
      <point x="856" y="862"/>
      <point x="839" y="755" type="curve" smooth="yes"/>
      <point x="770" y="320" type="line" smooth="yes"/>
      <point x="753" y="211"/>
      <point x="676" y="165"/>
    </contour>
  </outline>
</glyph>
<glyph name="Hbar" format="1">
  <advance width="1624"/>
  <unicode hex="0126"/>
  <outline>
    <contour>
      <point x="146" y="1132" type="line"/>
      <point x="1602" y="1132" type="line"/>
      <point x="1619" y="1236" type="line"/>
      <point x="163" y="1236" type="line"/>
    </contour>
    <component base="H"/>
  </outline>
</glyph>
<glyph name="dotlessi" format="1">
  <advance width="570"/>
  <unicode hex="0131"/>
  <outline>
    <contour>
      <point x="224" y="0" type="move" name="ogonek"/>
    </contour>
    <contour>
      <point x="388" y="1074" type="move" name="top"/>
    </contour>
    <contour>
      <point x="85" y="0" type="line"/>
      <point x="336" y="0" type="line"/>
      <point x="506" y="1074" type="line"/>
      <point x="255" y="1074" type="line"/>
    </contour>
  </outline>
</glyph>
<glyph name="lslash" format="1">
  <advance width="708"/>
  <unicode hex="0142"/>
  <outline>
    <component base="l"/>
    <contour>
      <point x="14" y="680" type="line"/>
      <point x="625" y="915" type="line"/>
      <point x="648" y="1059" type="line"/>
      <point x="36" y="823" type="line"/>
    </contour>
  </outline>
</glyph>
<glyph name="Eng" format="1">
  <advance width="1640"/>
  <unicode hex="014A"/>
  <outline>
    <contour>
      <point x="754" y="-382" type="line"/>
      <point x="1196" y="-382"/>
      <point x="1329" y="-219"/>
      <point x="1389" y="162" type="curve" smooth="yes"/>
      <point x="1597" y="1477" type="line"/>
      <point x="1330" y="1477" type="line"/>
      <point x="1185" y="560" type="line"/>
      <point x="562" y="1477" type="line"/>
      <point x="337" y="1477" type="line"/>
      <point x="103" y="0" type="line"/>
      <point x="371" y="0" type="line"/>
      <point x="529" y="996" type="line"/>
      <point x="1115" y="153" type="line"/>
      <point x="1109" y="117" type="line" smooth="yes"/>
      <point x="1065" y="-159"/>
      <point x="992" y="-171"/>
      <point x="756" y="-192" type="curve"/>
    </contour>
  </outline>
</glyph>
<glyph name="eng" format="1">
  <advance width="1254"/>
  <unicode hex="014B"/>
  <outline>
    <contour>
      <point x="437" y="-365" type="line"/>
      <point x="879" y="-365"/>
      <point x="1012" y="-202"/>
      <point x="1072" y="179" type="curve" smooth="yes"/>
      <point x="1170" y="794" type="line" smooth="yes"/>
      <point x="1198" y="975"/>
      <point x="1078" y="1097"/>
      <point x="872" y="1097" type="curve" smooth="yes"/>
      <point x="723" y="1097"/>
      <point x="584" y="1030"/>
      <point x="525" y="948" type="curve"/>
      <point x="545" y="1074" type="line"/>
      <point x="272" y="1074" type="line"/>
      <point x="102" y="0" type="line"/>
      <point x="375" y="0" type="line"/>
      <point x="495" y="758" type="line" smooth="yes"/>
      <point x="512" y="863"/>
      <point x="629" y="907"/>
      <point x="728" y="907" type="curve" smooth="yes"/>
      <point x="812" y="907"/>
      <point x="911" y="881"/>
      <point x="893" y="768" type="curve" smooth="yes"/>
      <point x="798" y="172" type="line" smooth="yes"/>
      <point x="749" y="-140"/>
      <point x="687" y="-153"/>
      <point x="439" y="-175" type="curve"/>
    </contour>
  </outline>
</glyph>
<glyph name="florin" format="1">
  <advance width="1024"/>
  <unicode hex="0192"/>
  <outline>
    <contour>
      <point x="231" y="-205" type="curve" smooth="yes"/>
      <point x="459" y="-205"/>
      <point x="502" y="-67"/>
      <point x="529" y="101" type="curve" smooth="yes"/>
      <point x="646" y="843" type="line"/>
      <point x="818" y="843" type="line"/>
      <point x="837" y="962" type="line"/>
      <point x="665" y="962" type="line"/>
      <point x="704" y="1207" type="line" smooth="yes"/>
      <point x="716" y="1281"/>
      <point x="738" y="1347"/>
      <point x="836" y="1347" type="curve" smooth="yes"/>
      <point x="850" y="1347"/>
      <point x="872" y="1342"/>
      <point x="893" y="1341" type="curve"/>
      <point x="916" y="1488" type="line"/>
      <point x="864" y="1494"/>
      <point x="833" y="1496"/>
      <point x="796" y="1496" type="curve" smooth="yes"/>
      <point x="565" y="1496"/>
      <point x="523" y="1358"/>
      <point x="495" y="1181" type="curve" smooth="yes"/>
      <point x="460" y="962" type="line"/>
      <point x="313" y="962" type="line"/>
      <point x="294" y="843" type="line"/>
      <point x="441" y="843" type="line"/>
      <point x="319" y="74" type="line" smooth="yes"/>
      <point x="308" y="1"/>
      <point x="285" y="-56"/>
      <point x="195" y="-56" type="curve" smooth="yes"/>
      <point x="180" y="-56"/>
      <point x="154" y="-53"/>
      <point x="131" y="-49" type="curve"/>
      <point x="108" y="-196" type="line"/>
      <point x="161" y="-203"/>
      <point x="193" y="-205"/>
    </contour>
  </outline>
</glyph>
<glyph name="dotlessj" format="1">
  <advance width="673"/>
  <unicode hex="0237"/>
  <outline>
    <contour>
      <point x="480" y="1074" type="move" name="top"/>
    </contour>
    <contour>
      <point x="-95" y="-329" type="line"/>
      <point x="14" y="-329" type="line" smooth="yes"/>
      <point x="281" y="-329"/>
      <point x="411" y="-183"/>
      <point x="445" y="30" type="curve" smooth="yes"/>
      <point x="610" y="1074" type="line"/>
      <point x="337" y="1074" type="line"/>
      <point x="174" y="43" type="line" smooth="yes"/>
      <point x="161" y="-39"/>
      <point x="115" y="-135"/>
      <point x="-25" y="-135" type="curve" smooth="yes"/>
      <point x="-70" y="-135" type="line"/>
    </contour>
  </outline>
</glyph>
<glyph name="uni02BC" format="1">
  <advance width="600"/>
  <unicode hex="02BC"/>
  <outline>
    <contour>
      <point x="23" y="1074" type="move" name="_top"/>
    </contour>
    <component base="comma" xOffset="-200" yOffset="1633"/>
  </outline>
</glyph>
<glyph name="circumflex" format="1">
  <advance width="512"/>
  <unicode hex="02C6"/>
  <outline>
    <contour>
      <point x="221" y="1074" type="move" name="_top"/>
    </contour>
    <contour>
      <point x="-93" y="1216" type="line"/>
      <point x="137" y="1216" type="line"/>
      <point x="266" y="1359" type="line"/>
      <point x="341" y="1216" type="line"/>
      <point x="566" y="1216" type="line"/>
      <point x="404" y="1514" type="line"/>
      <point x="179" y="1514" type="line"/>
    </contour>
  </outline>
</glyph>
<glyph name="breve" format="1">
  <advance width="512"/>
  <unicode hex="02D8"/>
  <outline>
    <contour>
      <point x="224" y="1074" type="move" name="_top"/>
    </contour>
    <contour>
      <point x="235" y="1217" type="curve" smooth="yes"/>
      <point x="363" y="1217"/>
      <point x="501" y="1276"/>
      <point x="533" y="1476" type="curve"/>
      <point x="389" y="1476" type="line"/>
      <point x="376" y="1400"/>
      <point x="317" y="1376"/>
      <point x="261" y="1376" type="curve" smooth="yes"/>
      <point x="205" y="1376"/>
      <point x="152" y="1400"/>
      <point x="165" y="1476" type="curve"/>
      <point x="21" y="1476" type="line"/>
      <point x="-11" y="1276"/>
      <point x="107" y="1217"/>
    </contour>
  </outline>
</glyph>
<glyph name="ogonek" format="1">
  <advance width="487"/>
  <unicode hex="02DB"/>
  <outline>
    <contour>
      <point x="305" y="0" type="move" name="_ogonek"/>
    </contour>
    <contour>
      <point x="368" y="-508" type="curve"/>
      <point x="403" y="-367" type="line"/>
      <point x="314" y="-367"/>
      <point x="230" y="-350"/>
      <point x="247" y="-245" type="curve" smooth="yes"/>
      <point x="261" y="-156"/>
      <point x="316" y="-70"/>
      <point x="370" y="9" type="curve"/>
      <point x="255" y="9" type="line"/>
      <point x="151" y="-76"/>
      <point x="70" y="-194"/>
      <point x="54" y="-294" type="curve" smooth="yes"/>
      <point x="24" y="-480"/>
      <point x="207" y="-510"/>
    </contour>
  </outline>
</glyph>
<glyph name="hungarumlaut" format="1">
  <advance width="1024"/>
  <unicode hex="02DD"/>
  <outline>
    <contour>
      <point x="324" y="1074" type="move" name="_top"/>
    </contour>
    <contour>
      <point x="77" y="1157" type="line"/>
      <point x="226" y="1157" type="line"/>
      <point x="517" y="1522" type="line"/>
      <point x="249" y="1522" type="line"/>
    </contour>
    <contour>
      <point x="487" y="1157" type="line"/>
      <point x="636" y="1157" type="line"/>
      <point x="927" y="1522" type="line"/>
      <point x="659" y="1522" type="line"/>
    </contour>
  </outline>
</glyph>
<glyph name="Sigma" format="1">
  <advance width="1196"/>
  <unicode hex="03A3"/>
  <outline>
    <contour>
      <point x="973" y="0" type="line"/>
      <point x="1009" y="226" type="line"/>
      <point x="365" y="226" type="line"/>
      <point x="872" y="734" type="line"/>
      <point x="885" y="812" type="line"/>
      <point x="530" y="1252" type="line"/>
      <point x="1171" y="1252" type="line"/>
      <point x="1207" y="1476" type="line"/>
      <point x="209" y="1476" type="line"/>
      <point x="180" y="1291" type="line"/>
      <point x="577" y="761" type="line"/>
      <point x="5" y="191" type="line"/>
      <point x="-25" y="0" type="line"/>
    </contour>
  </outline>
</glyph>
<glyph name="uni03BC" format="1">
  <advance width="1246"/>
  <unicode hex="03BC"/>
  <outline>
    <contour>
      <point x="919" y="1074" type="line"/>
      <point x="799" y="317" type="line" smooth="yes"/>
      <point x="783" y="217"/>
      <point x="661" y="166"/>
      <point x="562" y="166" type="curve" smooth="yes"/>
      <point x="478" y="166"/>
      <point x="385" y="196"/>
      <point x="402" y="308" type="curve" smooth="yes"/>
      <point x="524" y="1074" type="line"/>
      <point x="252" y="1074" type="line"/>
      <point x="44" y="-236" type="line"/>
      <point x="296" y="-236" type="line"/>
      <point x="334" y="2" type="line"/>
      <point x="388" y="-12"/>
      <point x="438" y="-19"/>
      <point x="483" y="-19" type="curve" smooth="yes"/>
      <point x="619" y="-19"/>
      <point x="717" y="41"/>
      <point x="770" y="135" type="curve"/>
      <point x="755" y="0" type="line"/>
      <point x="1022" y="0" type="line"/>
      <point x="1192" y="1074" type="line"/>
    </contour>
  </outline>
</glyph>
<glyph name="pi" format="1">
  <advance width="1257"/>
  <unicode hex="03C0"/>
  <outline>
    <contour>
      <point x="79" y="801" type="line"/>
      <point x="145" y="845"/>
      <point x="187" y="881"/>
      <point x="296" y="891" type="curve"/>
      <point x="155" y="0" type="line"/>
      <point x="407" y="0" type="line"/>
      <point x="548" y="893" type="line"/>
      <point x="813" y="893" type="line"/>
      <point x="719" y="297" type="line" smooth="yes"/>
      <point x="677" y="32"/>
      <point x="789" y="-23"/>
      <point x="1023" y="-20" type="curve"/>
      <point x="1096" y="156" type="line"/>
      <point x="972" y="181"/>
      <point x="953" y="184"/>
      <point x="978" y="343" type="curve" smooth="yes"/>
      <point x="1065" y="893" type="line"/>
      <point x="1247" y="893" type="line"/>
      <point x="1276" y="1074" type="line"/>
      <point x="324" y="1074" type="line" smooth="yes"/>
      <point x="221" y="1074"/>
      <point x="155" y="1032"/>
      <point x="109" y="986" type="curve"/>
    </contour>
  </outline>
</glyph>
<glyph name="endash" format="1">
  <advance width="716"/>
  <unicode hex="2013"/>
  <outline>
    <contour>
      <point x="115" y="446" type="line"/>
      <point x="575" y="446" type="line"/>
      <point x="601" y="612" type="line"/>
      <point x="141" y="612" type="line"/>
    </contour>
  </outline>
</glyph>
<glyph name="uni2015" format="1">
  <advance width="1624"/>
  <unicode hex="2015"/>
  <outline>
    <contour>
      <point x="66" y="1132" type="line"/>
      <point x="1522" y="1132" type="line"/>
      <point x="1539" y="1236" type="line"/>
      <point x="83" y="1236" type="line"/>
    </contour>
  </outline>
</glyph>
<glyph name="quotesinglbase" format="1">
  <advance width="874"/>
  <unicode hex="201A"/>
  <outline>
    <contour>
      <point x="369" y="-389" type="line"/>
      <point x="440" y="-333"/>
      <point x="604" y="-148"/>
      <point x="635" y="53" type="curve" smooth="yes"/>
      <point x="671" y="276" type="line"/>
      <point x="349" y="276" type="line"/>
      <point x="305" y="0" type="line"/>
      <point x="470" y="0" type="line"/>
      <point x="448" y="-138"/>
      <point x="330" y="-285"/>
      <point x="270" y="-343" type="curve"/>
    </contour>
  </outline>
</glyph>
<glyph name="quotedblright" format="1">
  <advance width="1350"/>
  <unicode hex="201D"/>
  <outline>
    <contour>
      <point x="369" y="851" type="line"/>
      <point x="440" y="907"/>
      <point x="604" y="1092"/>
      <point x="635" y="1293" type="curve" smooth="yes"/>
      <point x="671" y="1516" type="line"/>
      <point x="349" y="1516" type="line"/>
      <point x="305" y="1240" type="line"/>
      <point x="470" y="1240" type="line"/>
      <point x="448" y="1102"/>
      <point x="330" y="955"/>
      <point x="270" y="897" type="curve"/>
    </contour>
    <contour>
      <point x="845" y="851" type="line"/>
      <point x="916" y="907"/>
      <point x="1080" y="1092"/>
      <point x="1111" y="1293" type="curve" smooth="yes"/>
      <point x="1147" y="1516" type="line"/>
      <point x="825" y="1516" type="line"/>
      <point x="781" y="1240" type="line"/>
      <point x="946" y="1240" type="line"/>
      <point x="924" y="1102"/>
      <point x="806" y="955"/>
      <point x="746" y="897" type="curve"/>
    </contour>
  </outline>
</glyph>
<glyph name="bullet" format="1">
  <advance width="1024"/>
  <unicode hex="2022"/>
  <outline>
    <contour>
      <point x="461" y="390" type="curve" smooth="yes"/>
      <point x="654" y="390"/>
      <point x="803" y="524"/>
      <point x="832" y="707" type="curve" smooth="yes"/>
      <point x="861" y="891"/>
      <point x="754" y="1025"/>
      <point x="562" y="1025" type="curve" smooth="yes"/>
      <point x="369" y="1025"/>
      <point x="221" y="891"/>
      <point x="192" y="707" type="curve" smooth="yes"/>
      <point x="163" y="523"/>
      <point x="269" y="390"/>
    </contour>
  </outline>
</glyph>
<glyph name="foursuperior" format="1">
  <advance width="1116"/>
  <unicode hex="2074"/>
  <outline>
    <contour>
      <point x="545" y="616" type="line"/>
      <point x="700" y="616" type="line"/>
      <point x="731" y="813" type="line"/>
      <point x="876" y="813" type="line"/>
      <point x="901" y="973" type="line"/>
      <point x="756" y="973" type="line"/>
      <point x="790" y="1183" type="line"/>
      <point x="635" y="1183" type="line"/>
      <point x="601" y="973" type="line"/>
      <point x="394" y="973" type="line"/>
      <point x="721" y="1566" type="line"/>
      <point x="510" y="1566" type="line"/>
      <point x="162" y="975" type="line"/>
      <point x="136" y="813" type="line"/>
      <point x="576" y="813" type="line"/>
    </contour>
  </outline>
</glyph>
<glyph name="Ohm" format="1">
  <advance width="1634"/>
  <unicode hex="2126"/>
  <outline>
    <contour>
      <point x="935" y="1489" type="curve"/>
      <point x="551" y="1489"/>
      <point x="253" y="1418"/>
      <point x="146" y="746" type="curve"/>
      <point x="101" y="458"/>
      <point x="209" y="296"/>
      <point x="336" y="206" type="curve"/>
      <point x="82" y="206" type="line"/>
      <point x="49" y="0" type="line"/>
      <point x="617" y="0" type="line"/>
      <point x="647" y="192" type="line"/>
      <point x="442" y="305"/>
      <point x="407" y="447"/>
      <point x="459" y="779" type="curve"/>
      <point x="531" y="1231"/>
      <point x="667" y="1271"/>
      <point x="900" y="1271" type="curve"/>
      <point x="1143" y="1271"/>
      <point x="1257" y="1231"/>
      <point x="1185" y="779" type="curve"/>
      <point x="1133" y="447"/>
      <point x="1052" y="305"/>
      <point x="811" y="192" type="curve"/>
      <point x="781" y="0" type="line"/>
      <point x="1349" y="0" type="line"/>
      <point x="1382" y="206" type="line"/>
      <point x="1128" y="206" type="line"/>
      <point x="1283" y="296"/>
      <point x="1443" y="458"/>
      <point x="1488" y="746" type="curve"/>
      <point x="1595" y="1418"/>
      <point x="1329" y="1489"/>
    </contour>
  </outline>
</glyph>
<glyph name="estimated" format="1">
  <advance width="1205"/>
  <unicode hex="212E"/>
  <outline>
    <contour>
      <point x="707" y="1173" type="curve" smooth="yes"/>
      <point x="810" y="1173"/>
      <point x="906" y="1134"/>
      <point x="950" y="1054" type="curve"/>
      <point x="912" y="808" type="line"/>
      <point x="378" y="808" type="line"/>
      <point x="417" y="1055" type="line"/>
      <point x="491" y="1133"/>
      <point x="603" y="1173"/>
    </contour>
    <contour>
      <point x="95" y="730" type="curve" smooth="yes"/>
      <point x="45" y="413"/>
      <point x="195" y="178"/>
      <point x="575" y="178" type="curve" smooth="yes"/>
      <point x="781" y="178"/>
      <point x="929" y="267"/>
      <point x="1047" y="385" type="curve"/>
      <point x="975" y="464" type="line"/>
      <point x="866" y="363"/>
      <point x="746" y="304"/>
      <point x="594" y="304" type="curve" smooth="yes"/>
      <point x="463" y="304"/>
      <point x="382" y="344"/>
      <point x="324" y="425" type="curve"/>
      <point x="368" y="701" type="line"/>
      <point x="1105" y="701" type="line"/>
      <point x="1161" y="1058"/>
      <point x="1042" y="1280"/>
      <point x="724" y="1280" type="curve" smooth="yes"/>
      <point x="404" y="1280"/>
      <point x="144" y="1041"/>
    </contour>
  </outline>
</glyph>
<glyph name="product" format="1">
  <advance width="1776"/>
  <unicode hex="220F"/>
  <outline>
    <contour>
      <point x="588" y="319" type="line"/>
      <point x="719" y="319" type="line"/>
      <point x="772" y="652" type="line"/>
      <point x="950" y="652" type="line" smooth="yes"/>
      <point x="1170" y="652"/>
      <point x="1243" y="760"/>
      <point x="1264" y="894" type="curve"/>
      <point x="1267" y="908" type="line"/>
      <point x="1290" y="1082"/>
      <point x="1199" y="1153"/>
      <point x="1042" y="1153" type="curve" smooth="yes"/>
      <point x="720" y="1153" type="line"/>
    </contour>
    <contour>
      <point x="786" y="742" type="line"/>
      <point x="837" y="1062" type="line"/>
      <point x="1032" y="1062" type="line" smooth="yes"/>
      <point x="1150" y="1062"/>
      <point x="1143" y="960"/>
      <point x="1134" y="901" type="curve" smooth="yes"/>
      <point x="1130" y="877" type="line" smooth="yes"/>
      <point x="1119" y="814"/>
      <point x="1086" y="742"/>
      <point x="972" y="742" type="curve" smooth="yes"/>
    </contour>
    <contour>
      <point x="789" y="82" type="curve" smooth="yes"/>
      <point x="425" y="82"/>
      <point x="203" y="357"/>
      <point x="261" y="722" type="curve" smooth="yes"/>
      <point x="319" y="1086"/>
      <point x="627" y="1361"/>
      <point x="991" y="1361" type="curve" smooth="yes"/>
      <point x="1357" y="1361"/>
      <point x="1576" y="1086"/>
      <point x="1518" y="722" type="curve" smooth="yes"/>
      <point x="1460" y="357"/>
      <point x="1155" y="82"/>
    </contour>
    <contour>
      <point x="772" y="-14" type="curve" smooth="yes"/>
      <point x="1188" y="-14"/>
      <point x="1558" y="303"/>
      <point x="1624" y="722" type="curve" smooth="yes"/>
      <point x="1690" y="1139"/>
      <point x="1420" y="1456"/>
      <point x="1004" y="1456" type="curve" smooth="yes"/>
      <point x="591" y="1456"/>
      <point x="218" y="1139"/>
      <point x="152" y="722" type="curve" smooth="yes"/>
      <point x="86" y="303"/>
      <point x="359" y="-14"/>
    </contour>
  </outline>
</glyph>
<glyph name="minus" format="1">
  <advance width="792"/>
  <unicode hex="2212"/>
  <outline>
    <contour>
      <point x="108" y="439" type="line"/>
      <point x="650" y="439" type="line"/>
      <point x="678" y="619" type="line"/>
      <point x="136" y="619" type="line"/>
    </contour>
  </outline>
</glyph>
<glyph name="radical" format="1">
  <advance width="1298"/>
  <unicode hex="221A"/>
  <outline>
    <contour>
      <point x="-40" y="512" type="line"/>
      <point x="79" y="512" type="line"/>
      <point x="308" y="0" type="line"/>
      <point x="555" y="0" type="line"/>
      <point x="1386" y="1506" type="line"/>
      <point x="1191" y="1506" type="line"/>
      <point x="471" y="229" type="line"/>
      <point x="318" y="623" type="line"/>
      <point x="-23" y="623" type="line"/>
    </contour>
  </outline>
</glyph>
<glyph name="integral" format="1">
  <advance width="693"/>
  <unicode hex="222B"/>
  <outline>
    <contour>
      <point x="41" y="-263" type="curve" smooth="yes"/>
      <point x="269" y="-263"/>
      <point x="312" y="-125"/>
      <point x="338" y="43" type="curve" smooth="yes"/>
      <point x="514" y="1152" type="line" smooth="yes"/>
      <point x="526" y="1227"/>
      <point x="548" y="1292"/>
      <point x="646" y="1292" type="curve" smooth="yes"/>
      <point x="660" y="1292"/>
      <point x="683" y="1288"/>
      <point x="703" y="1286" type="curve"/>
      <point x="727" y="1433" type="line"/>
      <point x="675" y="1439"/>
      <point x="643" y="1442"/>
      <point x="606" y="1442" type="curve" smooth="yes"/>
      <point x="375" y="1442"/>
      <point x="333" y="1303"/>
      <point x="305" y="1126" type="curve" smooth="yes"/>
      <point x="129" y="16" type="line" smooth="yes"/>
      <point x="118" y="-57"/>
      <point x="95" y="-114"/>
      <point x="5" y="-114" type="curve" smooth="yes"/>
      <point x="-10" y="-114"/>
      <point x="-36" y="-111"/>
      <point x="-59" y="-107" type="curve"/>
      <point x="-83" y="-254" type="line"/>
      <point x="-30" y="-261"/>
      <point x="3" y="-263"/>
    </contour>
  </outline>
</glyph>
<glyph name="notequal" format="1">
  <advance width="919"/>
  <unicode hex="2260"/>
  <outline>
    <component base="equal"/>
    <contour>
      <point x="51" y="150" type="line"/>
      <point x="224" y="150" type="line"/>
      <point x="813" y="1094" type="line"/>
      <point x="640" y="1094" type="line"/>
    </contour>
  </outline>
</glyph>
<glyph name=".notdef" format="1">
  <advance width="1024"/>
  <outline>
    <contour>
      <point x="149" y="102" type="line"/>
      <point x="259" y="799" type="line"/>
      <point x="875" y="799" type="line"/>
      <point x="765" y="102" type="line"/>
    </contour>
    <contour>
      <point x="31" y="0" type="line"/>
      <point x="851" y="0" type="line"/>
      <point x="993" y="901" type="line"/>
      <point x="173" y="901" type="line"/>
    </contour>
  </outline>
</glyph>
